{
  "asset": {
    "version": "2.0",
    "generator": "THREE.GLTFExporter"
  },
  "scenes": [
    {
      "name": "Scene",
      "nodes": [
        5
      ]
    }
  ],
  "scene": 0,
  "nodes": [
    {
      "name": "Empty",
      "extras": {
        "name": "Empty"
      }
    },
    {
      "matrix": [
        -1.692533331088626e-7,
        0,
        -1.2597111963987189,
        0,
        0,
        2.735480546951294,
        0,
        0,
        2.735480914487332,
        0,
        -3.675360382254767e-7,
        0,
        0,
        0,
        0,
        1
      ],
      "name": "Round_Cube",
      "extras": {
        "name": "Round Cube"
      },
      "mesh": 0
    },
    {
      "matrix": [
        -1.692533331088626e-7,
        0,
        -1.2597111963987189,
        0,
        0,
        2.735480546951294,
        0,
        0,
        2.735480914487332,
        0,
        -3.675360382254767e-7,
        0,
        0,
        0,
        0,
        1
      ],
      "name": "Round_Cube004",
      "extras": {
        "name": "Round Cube.004"
      },
      "mesh": 1
    },
    {
      "matrix": [
        298.80224609375,
        0,
        0,
        0,
        0,
        -0.00004014672810032094,
        298.8022862404781,
        0,
        0,
        -298.8022862404781,
        -0.00004014672810032094,
        0,
        -0.17084398865699768,
        -0.12203111499547958,
        1.899999976158142,
        1
      ],
      "name": "Exclude",
      "extras": {
        "name": "Exclude"
      },
      "mesh": 2
    },
    {
      "matrix": [
        -1.692533331088626e-7,
        0,
        -1.2597111963987189,
        0,
        0,
        2.735480546951294,
        0,
        0,
        2.735480914487332,
        0,
        -3.675360382254767e-7,
        0,
        0,
        0,
        0,
        1
      ],
      "name": "Github",
      "extras": {
        "name": "Github"
      },
      "mesh": 3
    },
    {
      "name": "github.gltf",
      "children": [
        0,
        1,
        2,
        3,
        4
      ]
    }
  ],
  "bufferViews": [
    {
      "buffer": 0,
      "byteOffset": 0,
      "byteLength": 25284,
      "target": 34962,
      "byteStride": 12
    },
    {
      "buffer": 0,
      "byteOffset": 25284,
      "byteLength": 16856,
      "target": 34962,
      "byteStride": 8
    },
    {
      "buffer": 0,
      "byteOffset": 42140,
      "byteLength": 25284,
      "target": 34962,
      "byteStride": 12
    },
    {
      "buffer": 0,
      "byteOffset": 67424,
      "byteLength": 22992,
      "target": 34963
    },
    {
      "buffer": 0,
      "byteOffset": 90416,
      "byteLength": 25284,
      "target": 34962,
      "byteStride": 12
    },
    {
      "buffer": 0,
      "byteOffset": 115700,
      "byteLength": 16856,
      "target": 34962,
      "byteStride": 8
    },
    {
      "buffer": 0,
      "byteOffset": 132556,
      "byteLength": 25284,
      "target": 34962,
      "byteStride": 12
    },
    {
      "buffer": 0,
      "byteOffset": 157840,
      "byteLength": 4704,
      "target": 34962,
      "byteStride": 12
    },
    {
      "buffer": 0,
      "byteOffset": 162544,
      "byteLength": 3136,
      "target": 34962,
      "byteStride": 8
    },
    {
      "buffer": 0,
      "byteOffset": 165680,
      "byteLength": 4704,
      "target": 34962,
      "byteStride": 12
    },
    {
      "buffer": 0,
      "byteOffset": 170384,
      "byteLength": 1788,
      "target": 34963
    },
    {
      "buffer": 0,
      "byteOffset": 172172,
      "byteLength": 25284,
      "target": 34962,
      "byteStride": 12
    },
    {
      "buffer": 0,
      "byteOffset": 197456,
      "byteLength": 16856,
      "target": 34962,
      "byteStride": 8
    },
    {
      "buffer": 0,
      "byteOffset": 214312,
      "byteLength": 25284,
      "target": 34962,
      "byteStride": 12
    }
  ],
  "buffers": [
    {
      "byteLength": 239596,
      "uri": "data:application/octet-stream;base64,"
    }
  ],
  "accessors": [
    {
      "bufferView": 0,
      "componentType": 5126,
      "count": 2107,
      "max": [
        1,
        1,
        1
      ],
      "min": [
        -1.5063056945800781,
        -1,
        -1
      ],
      "type": "VEC3"
    },
    {
      "bufferView": 1,
      "componentType": 5126,
      "count": 2107,
      "max": [
        0.8597856760025024,
        1
      ],
      "min": [
        0.125,
        0.015214383602142334
      ],
      "type": "VEC2"
    },
    {
      "bufferView": 2,
      "componentType": 5126,
      "count": 2107,
      "max": [
        1,
        0.9991511702537537,
        0.9991511702537537
      ],
      "min": [
        -1,
        -0.9991511702537537,
        -0.9991511702537537
      ],
      "type": "VEC3"
    },
    {
      "bufferView": 3,
      "componentType": 5123,
      "count": 11496,
      "max": [
        2106
      ],
      "min": [
        0
      ],
      "type": "SCALAR"
    },
    {
      "bufferView": 4,
      "componentType": 5126,
      "count": 2107,
      "max": [
        1,
        1,
        1
      ],
      "min": [
        -1.5063056945800781,
        -1,
        -1
      ],
      "type": "VEC3"
    },
    {
      "bufferView": 5,
      "componentType": 5126,
      "count": 2107,
      "max": [
        0.8597856760025024,
        1
      ],
      "min": [
        0.125,
        0.015214383602142334
      ],
      "type": "VEC2"
    },
    {
      "bufferView": 6,
      "componentType": 5126,
      "count": 2107,
      "max": [
        1,
        0.9991511702537537,
        0.9991511702537537
      ],
      "min": [
        -1,
        -0.9991511702537537,
        -0.9991511702537537
      ],
      "type": "VEC3"
    },
    {
      "bufferView": 7,
      "componentType": 5126,
      "count": 392,
      "max": [
        0.005091698374599218,
        0,
        0.004604609217494726
      ],
      "min": [
        -0.0042117745615541935,
        0,
        -0.006144152954220772
      ],
      "type": "VEC3"
    },
    {
      "bufferView": 8,
      "componentType": 5126,
      "count": 392,
      "max": [
        1,
        1
      ],
      "min": [
        0,
        1
      ],
      "type": "VEC2"
    },
    {
      "bufferView": 9,
      "componentType": 5126,
      "count": 392,
      "max": [
        0,
        1,
        0
      ],
      "min": [
        0,
        0.9999999403953552,
        0
      ],
      "type": "VEC3"
    },
    {
      "bufferView": 10,
      "componentType": 5123,
      "count": 894,
      "max": [
        391
      ],
      "min": [
        0
      ],
      "type": "SCALAR"
    },
    {
      "bufferView": 11,
      "componentType": 5126,
      "count": 2107,
      "max": [
        1,
        1,
        1
      ],
      "min": [
        -1.5063056945800781,
        -1,
        -1
      ],
      "type": "VEC3"
    },
    {
      "bufferView": 12,
      "componentType": 5126,
      "count": 2107,
      "max": [
        0.8597856760025024,
        1
      ],
      "min": [
        0.125,
        0.015214383602142334
      ],
      "type": "VEC2"
    },
    {
      "bufferView": 13,
      "componentType": 5126,
      "count": 2107,
      "max": [
        1,
        0.9991511702537537,
        0.9991511702537537
      ],
      "min": [
        -1,
        -0.9991511702537537,
        -0.9991511702537537
      ],
      "type": "VEC3"
    }
  ],
  "materials": [
    {
      "pbrMetallicRoughness": {
        "baseColorFactor": [
          0.010329825803637505,
          0.010329821147024632,
          0.010960094630718231,
          1
        ],
        "metallicFactor": 0.07829181849956512,
        "roughnessFactor": 0.32473310828208923
      },
      "doubleSided": true,
      "name": "Apple_Voice_Memos",
      "extensions": {
        "KHR_materials_clearcoat": {
          "clearcoatFactor": 0.13523131608963013,
          "clearcoatRoughnessFactor": 0
        },
        "KHR_materials_iridescence": {
          "iridescenceFactor": 0,
          "iridescenceIor": 1.3,
          "iridescenceThicknessMinimum": 100,
          "iridescenceThicknessMaximum": 400
        }
      }
    },
    {
      "pbrMetallicRoughness": {
        "metallicFactor": 0,
        "roughnessFactor": 0.4000000059604645
      },
      "doubleSided": true,
      "name": "SVGMat.021"
    },
    {
      "pbrMetallicRoughness": {
        "baseColorFactor": [
          0,
          0,
          0,
          1
        ],
        "metallicFactor": 0.07829181849956512,
        "roughnessFactor": 0.4747331142425537
      },
      "doubleSided": true,
      "name": "Github",
      "extensions": {
        "KHR_materials_clearcoat": {
          "clearcoatFactor": 0.13523131608963013,
          "clearcoatRoughnessFactor": 0
        },
        "KHR_materials_iridescence": {
          "iridescenceFactor": 0,
          "iridescenceIor": 1.3,
          "iridescenceThicknessMinimum": 100,
          "iridescenceThicknessMaximum": 400
        }
      }
    }
  ],
  "meshes": [
    {
      "primitives": [
        {
          "mode": 4,
          "attributes": {
            "POSITION": 0,
            "TEXCOORD_0": 1,
            "NORMAL": 2
          },
          "indices": 3,
          "material": 0
        }
      ]
    },
    {
      "primitives": [
        {
          "mode": 4,
          "attributes": {
            "POSITION": 4,
            "TEXCOORD_0": 5,
            "NORMAL": 6
          },
          "indices": 3,
          "material": 0
        }
      ]
    },
    {
      "primitives": [
        {
          "mode": 4,
          "attributes": {
            "POSITION": 7,
            "TEXCOORD_0": 8,
            "NORMAL": 9
          },
          "indices": 10,
          "material": 1
        }
      ]
    },
    {
      "primitives": [
        {
          "mode": 4,
          "attributes": {
            "POSITION": 11,
            "TEXCOORD_0": 12,
            "NORMAL": 13
          },
          "indices": 3,
          "material": 2
        }
      ]
    }
  ],
  "extensionsUsed": [
    "KHR_materials_clearcoat",
    "KHR_materials_iridescence"
  ]
}