{
  "asset": {
    "version": "2.0",
    "generator": "THREE.GLTFExporter"
  },
  "scenes": [
    {
      "name": "Scene",
      "nodes": [
        2
      ]
    }
  ],
  "scene": 0,
  "nodes": [
    {
      "matrix": [
        -0.344955511051551,
        -0.025427840923140543,
        -0.9382745389233023,
        0,
        0.1875596560732733,
        0.977604578600883,
        -0.0954497938565586,
        0,
        0.9196885673419146,
        -0.208908383363549,
        -0.33246084979084145,
        0,
        2.1879994869232178,
        0.06000828742980957,
        -0.4207732677459717,
        1
      ],
      "name": "Cube016",
      "extras": {
        "name": "Cube.016"
      },
      "mesh": 0
    },
    {
      "matrix": [
        1.7158886864472185,
        -0.38976688650926844,
        -0.6202816005861217,
        0,
        0.400747082699631,
        0.02954080327690334,
        1.0900264466689635,
        0,
        -0.34993571816107316,
        -1.8239441606377607,
        0.17808420309528208,
        0,
        1.8317177295684814,
        -0.24497327208518982,
        0.8141171932220459,
        1
      ],
      "name": "Text003",
      "extras": {
        "name": "Text.003"
      },
      "mesh": 1
    },
    {
      "name": "linkedin.gltf",
      "children": [
        0,
        1
      ]
    }
  ],
  "bufferViews": [
    {
      "buffer": 0,
      "byteOffset": 0,
      "byteLength": 10896,
      "target": 34962,
      "byteStride": 12
    },
    {
      "buffer": 0,
      "byteOffset": 10896,
      "byteLength": 7264,
      "target": 34962,
      "byteStride": 8
    },
    {
      "buffer": 0,
      "byteOffset": 18160,
      "byteLength": 10896,
      "target": 34962,
      "byteStride": 12
    },
    {
      "buffer": 0,
      "byteOffset": 29056,
      "byteLength": 7656,
      "target": 34963
    },
    {
      "buffer": 0,
      "byteOffset": 36712,
      "byteLength": 7776,
      "target": 34962,
      "byteStride": 12
    },
    {
      "buffer": 0,
      "byteOffset": 44488,
      "byteLength": 5184,
      "target": 34962,
      "byteStride": 8
    },
    {
      "buffer": 0,
      "byteOffset": 49672,
      "byteLength": 7776,
      "target": 34962,
      "byteStride": 12
    },
    {
      "buffer": 0,
      "byteOffset": 57448,
      "byteLength": 2544,
      "target": 34963
    }
  ],
  "buffers": [
    {
      "byteLength": 59992,
      "uri": "data:application/octet-stream;base64,"
    }
  ],
  "accessors": [
    {
      "bufferView": 0,
      "componentType": 5126,
      "count": 908,
      "max": [
        0.03973901644349098,
        1,
        1
      ],
      "min": [
        -1,
        -1,
        -1
      ],
      "type": "VEC3"
    },
    {
      "bufferView": 1,
      "componentType": 5126,
      "count": 908,
      "max": [
        0.8567091226577759,
        1
      ],
      "min": [
        0.1432909369468689,
        0.01829087734222412
      ],
      "type": "VEC2"
    },
    {
      "bufferView": 2,
      "componentType": 5126,
      "count": 908,
      "max": [
        1,
        0.9968574643135071,
        0.9968574643135071
      ],
      "min": [
        -1,
        -0.9968574643135071,
        -0.9968574643135071
      ],
      "type": "VEC3"
    },
    {
      "bufferView": 3,
      "componentType": 5123,
      "count": 3828,
      "max": [
        907
      ],
      "min": [
        0
      ],
      "type": "SCALAR"
    },
    {
      "bufferView": 4,
      "componentType": 5126,
      "count": 648,
      "max": [
        0.6579999923706055,
        0.03999999910593033,
        0
      ],
      "min": [
        0.05700000375509262,
        -0.03999999910593033,
        -0.6380000114440918
      ],
      "type": "VEC3"
    },
    {
      "bufferView": 5,
      "componentType": 5126,
      "count": 648,
      "max": [
        1,
        1
      ],
      "min": [
        0,
        0
      ],
      "type": "VEC2"
    },
    {
      "bufferView": 6,
      "componentType": 5126,
      "count": 648,
      "max": [
        1,
        1,
        1
      ],
      "min": [
        -1,
        -1,
        -0.9999999403953552
      ],
      "type": "VEC3"
    },
    {
      "bufferView": 7,
      "componentType": 5123,
      "count": 1272,
      "max": [
        647
      ],
      "min": [
        0
      ],
      "type": "SCALAR"
    }
  ],
  "materials": [
    {
      "pbrMetallicRoughness": {
        "baseColorFactor": [
          0,
          0.18447479605674744,
          0.4620767831802368,
          1
        ],
        "metallicFactor": 0,
        "roughnessFactor": 0.15000000596046448
      },
      "doubleSided": true,
      "name": "LInkin"
    },
    {
      "pbrMetallicRoughness": {
        "baseColorFactor": [
          0.8000000715255737,
          0.6130876541137695,
          0.48953232169151306,
          1
        ],
        "metallicFactor": 0,
        "roughnessFactor": 0.15000000596046448
      },
      "doubleSided": true,
      "name": "White"
    }
  ],
  "meshes": [
    {
      "primitives": [
        {
          "mode": 4,
          "attributes": {
            "POSITION": 0,
            "TEXCOORD_0": 1,
            "NORMAL": 2
          },
          "indices": 3,
          "material": 0
        }
      ]
    },
    {
      "primitives": [
        {
          "mode": 4,
          "attributes": {
            "POSITION": 4,
            "TEXCOORD_0": 5,
            "NORMAL": 6
          },
          "indices": 7,
          "material": 1
        }
      ]
    }
  ]
}